<svg width="16" height="16" viewBox="0 0 16 16" fill="none" xmlns="http://www.w3.org/2000/svg">
<g clip-path="url(#clip0_309_813)">
<path fill-rule="evenodd" clip-rule="evenodd" d="M11.4997 14.9999C11.6323 14.9999 11.7594 14.9472 11.8532 14.8535C11.947 14.7597 11.9997 14.6325 11.9997 14.4999V2.70692L15.1457 5.85392C15.2395 5.9478 15.3669 6.00055 15.4997 6.00055C15.6324 6.00055 15.7598 5.9478 15.8537 5.85392C15.9475 5.76003 16.0003 5.63269 16.0003 5.49992C16.0003 5.36714 15.9475 5.2398 15.8537 5.14592L11.8537 1.14592C11.8072 1.09935 11.752 1.06241 11.6913 1.0372C11.6305 1.012 11.5654 0.999023 11.4997 0.999023C11.4339 0.999023 11.3688 1.012 11.308 1.0372C11.2473 1.06241 11.1921 1.09935 11.1457 1.14592L7.14566 5.14592C7.05177 5.2398 6.99902 5.36714 6.99902 5.49992C6.99902 5.63269 7.05177 5.76003 7.14566 5.85392C7.23954 5.9478 7.36688 6.00055 7.49966 6.00055C7.63243 6.00055 7.75977 5.9478 7.85366 5.85392L10.9997 2.70692V14.4999C10.9997 14.6325 11.0523 14.7597 11.1461 14.8535C11.2399 14.9472 11.367 14.9999 11.4997 14.9999ZM4.49966 0.999917C4.63226 0.999917 4.75944 1.0526 4.85321 1.14636C4.94698 1.24013 4.99966 1.36731 4.99966 1.49992V13.2929L8.14565 10.1459C8.23954 10.052 8.36688 9.99929 8.49965 9.99929C8.63243 9.99929 8.75977 10.052 8.85365 10.1459C8.94754 10.2398 9.00029 10.3671 9.00029 10.4999C9.00029 10.6327 8.94754 10.76 8.85365 10.8539L4.85366 14.8539C4.80721 14.9005 4.75203 14.9374 4.69129 14.9626C4.63054 14.9878 4.56542 15.0008 4.49966 15.0008C4.43389 15.0008 4.36877 14.9878 4.30802 14.9626C4.24728 14.9374 4.1921 14.9005 4.14566 14.8539L0.145655 10.8539C0.0517684 10.76 -0.000976566 10.6327 -0.000976562 10.4999C-0.000976559 10.3671 0.0517684 10.2398 0.145655 10.1459C0.239542 10.052 0.366879 9.99929 0.499655 9.99929C0.632431 9.99929 0.759768 10.052 0.853655 10.1459L3.99966 13.2929V1.49992C3.99966 1.36731 4.05233 1.24013 4.1461 1.14636C4.23987 1.0526 4.36705 0.999917 4.49966 0.999917Z" fill="white"/>
</g>
<defs>
<clipPath id="clip0_309_813">
<rect width="16" height="16" fill="white"/>
</clipPath>
</defs>
</svg>
