<svg width="23" height="21" viewBox="0 0 23 21" fill="none" xmlns="http://www.w3.org/2000/svg">
<g clip-path="url(#clip0_321_61)">
<path d="M2.85645 2.60784C2.85645 1.9162 3.15738 1.25289 3.69304 0.76382C4.22871 0.274754 4.95522 0 5.71277 0L17.1381 0C17.8956 0 18.6221 0.274754 19.1578 0.76382C19.6934 1.25289 19.9944 1.9162 19.9944 2.60784V20.2108C19.9943 20.3287 19.9592 20.4444 19.8928 20.5456C19.8264 20.6467 19.7312 20.7296 19.6173 20.7852C19.5035 20.8409 19.3752 20.8673 19.2462 20.8617C19.1172 20.856 18.9922 20.8186 18.8847 20.7532L11.4254 17.0827L3.96613 20.7532C3.85859 20.8186 3.73367 20.856 3.60465 20.8617C3.47563 20.8673 3.34735 20.8409 3.23348 20.7852C3.11961 20.7296 3.0244 20.6467 2.95801 20.5456C2.89161 20.4444 2.85651 20.3287 2.85645 20.2108V2.60784ZM5.71277 1.30392C5.334 1.30392 4.97074 1.4413 4.7029 1.68583C4.43507 1.93036 4.28461 2.26202 4.28461 2.60784V18.9929L11.0298 15.7566C11.147 15.6854 11.2846 15.6474 11.4254 15.6474C11.5662 15.6474 11.7038 15.6854 11.821 15.7566L18.5662 18.9929V2.60784C18.5662 2.26202 18.4157 1.93036 18.1479 1.68583C17.8801 1.4413 17.5168 1.30392 17.1381 1.30392H5.71277Z" fill="white"/>
<path d="M11.4249 5.21582C11.6143 5.21582 11.7959 5.28451 11.9298 5.40678C12.0637 5.52904 12.139 5.69487 12.139 5.86778V7.82366H14.2812C14.4706 7.82366 14.6522 7.89235 14.7861 8.01462C14.9201 8.13688 14.9953 8.30271 14.9953 8.47562C14.9953 8.64853 14.9201 8.81436 14.7861 8.93663C14.6522 9.0589 14.4706 9.12758 14.2812 9.12758H12.139V11.0835C12.139 11.2564 12.0637 11.4222 11.9298 11.5445C11.7959 11.6667 11.6143 11.7354 11.4249 11.7354C11.2355 11.7354 11.0539 11.6667 10.92 11.5445C10.786 11.4222 10.7108 11.2564 10.7108 11.0835V9.12758H8.56857C8.37919 9.12758 8.19756 9.0589 8.06364 8.93663C7.92973 8.81436 7.85449 8.64853 7.85449 8.47562C7.85449 8.30271 7.92973 8.13688 8.06364 8.01462C8.19756 7.89235 8.37919 7.82366 8.56857 7.82366H10.7108V5.86778C10.7108 5.69487 10.786 5.52904 10.92 5.40678C11.0539 5.28451 11.2355 5.21582 11.4249 5.21582Z" fill="white"/>
</g>
<defs>
<clipPath id="clip0_321_61">
<rect width="22.8506" height="20.8627" fill="white"/>
</clipPath>
</defs>
</svg>
