<svg width="22" height="21" viewBox="0 0 22 21" fill="none" xmlns="http://www.w3.org/2000/svg">
<g clip-path="url(#clip0_321_68)">
<path fill-rule="evenodd" clip-rule="evenodd" d="M15.9109 6.71009C15.9774 6.77065 16.0302 6.8426 16.0662 6.92181C16.1022 7.00101 16.1207 7.08593 16.1207 7.17168C16.1207 7.25744 16.1022 7.34235 16.0662 7.42156C16.0302 7.50076 15.9774 7.57271 15.9109 7.63327L11.6265 11.545C11.5601 11.6057 11.4813 11.6539 11.3946 11.6868C11.3078 11.7197 11.2148 11.7366 11.1209 11.7366C11.027 11.7366 10.934 11.7197 10.8472 11.6868C10.7605 11.6539 10.6817 11.6057 10.6153 11.545L8.47309 9.58915C8.40669 9.52853 8.35403 9.45657 8.3181 9.37737C8.28217 9.29817 8.26367 9.21329 8.26367 9.12756C8.26367 9.04184 8.28217 8.95695 8.3181 8.87775C8.35403 8.79855 8.40669 8.72659 8.47309 8.66597C8.53948 8.60536 8.6183 8.55727 8.70504 8.52447C8.79179 8.49166 8.88476 8.47478 8.97865 8.47478C9.07255 8.47478 9.16552 8.49166 9.25227 8.52447C9.33901 8.55727 9.41783 8.60536 9.48422 8.66597L11.1209 10.1616L14.8998 6.71009C14.9661 6.64938 15.0449 6.60121 15.1317 6.56834C15.2184 6.53547 15.3115 6.51855 15.4054 6.51855C15.4993 6.51855 15.5923 6.53547 15.6791 6.56834C15.7658 6.60121 15.8446 6.64938 15.9109 6.71009Z" fill="white"/>
<path d="M3.2666 2.60784C3.2666 1.9162 3.56753 1.25289 4.1032 0.76382C4.63886 0.274754 5.36538 0 6.12292 0L17.5482 0C18.3058 0 19.0323 0.274754 19.5679 0.76382C20.1036 1.25289 20.4045 1.9162 20.4045 2.60784V20.2108C20.4045 20.3287 20.3694 20.4444 20.303 20.5456C20.2366 20.6467 20.1414 20.7296 20.0275 20.7852C19.9136 20.8409 19.7853 20.8673 19.6563 20.8617C19.5273 20.856 19.4024 20.8186 19.2948 20.7532L11.8356 17.0827L4.37628 20.7532C4.26875 20.8186 4.14382 20.856 4.0148 20.8617C3.88578 20.8673 3.75751 20.8409 3.64364 20.7852C3.52976 20.7296 3.43456 20.6467 3.36816 20.5456C3.30177 20.4444 3.26667 20.3287 3.2666 20.2108V2.60784ZM6.12292 1.30392C5.74415 1.30392 5.38089 1.4413 5.11306 1.68583C4.84523 1.93036 4.69476 2.26202 4.69476 2.60784V18.9929L11.44 15.7566C11.5572 15.6854 11.6948 15.6474 11.8356 15.6474C11.9763 15.6474 12.114 15.6854 12.2312 15.7566L18.9764 18.9929V2.60784C18.9764 2.26202 18.8259 1.93036 18.5581 1.68583C18.2902 1.4413 17.927 1.30392 17.5482 1.30392H6.12292Z" fill="white"/>
</g>
<defs>
<clipPath id="clip0_321_68">
<rect width="21.8066" height="20.8627" fill="white"/>
</clipPath>
</defs>
</svg>
