<svg width="16" height="16" viewBox="0 0 16 16" fill="none" xmlns="http://www.w3.org/2000/svg">
<g clip-path="url(#clip0_310_908)">
<path fill-rule="evenodd" clip-rule="evenodd" d="M3.45881 5.98625C3.32777 5.98625 3.2021 6.03881 3.10944 6.13237C3.01678 6.22592 2.96472 6.35281 2.96472 6.48512V14.4669C2.96472 14.5993 3.01678 14.7261 3.10944 14.8197C3.2021 14.9133 3.32777 14.9658 3.45881 14.9658H12.3523C12.4833 14.9658 12.609 14.9133 12.7016 14.8197C12.7943 14.7261 12.8463 14.5993 12.8463 14.4669V6.48512C12.8463 6.35281 12.7943 6.22592 12.7016 6.13237C12.609 6.03881 12.4833 5.98625 12.3523 5.98625H10.3759C10.2449 5.98625 10.1192 5.9337 10.0266 5.84014C9.93391 5.74658 9.88186 5.6197 9.88186 5.48739C9.88186 5.35508 9.93391 5.22819 10.0266 5.13464C10.1192 5.04108 10.2449 4.98853 10.3759 4.98853H12.3523C12.7454 4.98853 13.1224 5.1462 13.4004 5.42687C13.6783 5.70753 13.8345 6.0882 13.8345 6.48512V14.4669C13.8345 14.8639 13.6783 15.2445 13.4004 15.5252C13.1224 15.8059 12.7454 15.9635 12.3523 15.9635H3.45881C3.06569 15.9635 2.68868 15.8059 2.4107 15.5252C2.13273 15.2445 1.97656 14.8639 1.97656 14.4669V6.48512C1.97656 6.0882 2.13273 5.70753 2.4107 5.42687C2.68868 5.1462 3.06569 4.98853 3.45881 4.98853H5.43513C5.56617 4.98853 5.69184 5.04108 5.7845 5.13464C5.87716 5.22819 5.92921 5.35508 5.92921 5.48739C5.92921 5.6197 5.87716 5.74658 5.7845 5.84014C5.69184 5.9337 5.56617 5.98625 5.43513 5.98625H3.45881Z" fill="white"/>
<path fill-rule="evenodd" clip-rule="evenodd" d="M7.55567 0.145584C7.60157 0.0991261 7.65609 0.0622672 7.71612 0.037118C7.77614 0.0119688 7.84049 -0.000976563 7.90548 -0.000976562C7.97047 -0.000976563 8.03482 0.0119688 8.09485 0.037118C8.15487 0.0622672 8.20939 0.0991261 8.25529 0.145584L11.2198 3.13877C11.3126 3.23244 11.3647 3.35949 11.3647 3.49197C11.3647 3.62444 11.3126 3.75149 11.2198 3.84516C11.127 3.93884 11.0012 3.99146 10.87 3.99146C10.7388 3.99146 10.6129 3.93884 10.5202 3.84516L8.39956 1.70304V10.4761C8.39956 10.6084 8.34751 10.7353 8.25485 10.8288C8.16219 10.9224 8.03652 10.9749 7.90548 10.9749C7.77444 10.9749 7.64877 10.9224 7.55611 10.8288C7.46345 10.7353 7.4114 10.6084 7.4114 10.4761V1.70304L5.2908 3.84516C5.24487 3.89154 5.19033 3.92834 5.13031 3.95344C5.07029 3.97854 5.00596 3.99146 4.94099 3.99146C4.80979 3.99146 4.68396 3.93884 4.59118 3.84516C4.54525 3.79878 4.50881 3.74372 4.48395 3.68311C4.45909 3.62251 4.44629 3.55756 4.44629 3.49197C4.44629 3.35949 4.49841 3.23244 4.59118 3.13877L7.55567 0.145584Z" fill="white"/>
</g>
<defs>
<clipPath id="clip0_310_908">
<rect width="15.8106" height="15.9637" fill="white"/>
</clipPath>
</defs>
</svg>
