<svg width="23" height="21" viewBox="0 0 23 21" fill="none" xmlns="http://www.w3.org/2000/svg">
<g clip-path="url(#clip0_321_54)">
<path d="M3.5704 4.52243C3.38102 4.52243 3.19939 4.45436 3.06547 4.3332C2.93156 4.21204 2.85632 4.04771 2.85632 3.87636C2.85632 3.70501 2.93156 3.54068 3.06547 3.41952C3.19939 3.29836 3.38102 3.23029 3.5704 3.23029H19.2802C19.4696 3.23029 19.6512 3.29836 19.7851 3.41952C19.919 3.54068 19.9943 3.70501 19.9943 3.87636C19.9943 4.04771 19.919 4.21204 19.7851 4.3332C19.6512 4.45436 19.4696 4.52243 19.2802 4.52243H3.5704ZM6.42672 1.93814C6.23734 1.93814 6.05571 1.87007 5.92179 1.74891C5.78788 1.62775 5.71264 1.46342 5.71264 1.29207C5.71264 1.12072 5.78788 0.956389 5.92179 0.835226C6.05571 0.714064 6.23734 0.645996 6.42672 0.645996H16.4239C16.6132 0.645996 16.7949 0.714064 16.9288 0.835226C17.0627 0.956389 17.1379 1.12072 17.1379 1.29207C17.1379 1.46342 17.0627 1.62775 16.9288 1.74891C16.7949 1.87007 16.6132 1.93814 16.4239 1.93814H6.42672ZM0 16.7978C0 17.3119 0.2257 17.8049 0.627448 18.1683C1.0292 18.5318 1.57408 18.736 2.14224 18.736H20.7083C21.2765 18.736 21.8214 18.5318 22.2231 18.1683C22.6249 17.8049 22.8506 17.3119 22.8506 16.7978V7.7528C22.8506 7.23875 22.6249 6.74576 22.2231 6.38227C21.8214 6.01878 21.2765 5.81458 20.7083 5.81458H2.14224C1.57408 5.81458 1.0292 6.01878 0.627448 6.38227C0.2257 6.74576 0 7.23875 0 7.7528L0 16.7978ZM2.14224 17.4439C1.95286 17.4439 1.77123 17.3758 1.63731 17.2547C1.50339 17.1335 1.42816 16.9692 1.42816 16.7978V7.7528C1.42816 7.58145 1.50339 7.41712 1.63731 7.29595C1.77123 7.17479 1.95286 7.10672 2.14224 7.10672H20.7083C20.8977 7.10672 21.0793 7.17479 21.2133 7.29595C21.3472 7.41712 21.4224 7.58145 21.4224 7.7528V16.7978C21.4224 16.9692 21.3472 17.1335 21.2133 17.2547C21.0793 17.3758 20.8977 17.4439 20.7083 17.4439H2.14224Z" fill="white"/>
<path d="M11.0645 9.06836C11.2539 9.06836 11.4356 9.13643 11.5695 9.25759C11.7034 9.37875 11.7786 9.54308 11.7786 9.71443V11.6527H13.9209C14.1103 11.6527 14.2919 11.7207 14.4258 11.8419C14.5597 11.963 14.6349 12.1274 14.6349 12.2987C14.6349 12.4701 14.5597 12.6344 14.4258 12.7556C14.2919 12.8767 14.1103 12.9448 13.9209 12.9448H11.7786V14.883C11.7786 15.0544 11.7034 15.2187 11.5695 15.3399C11.4356 15.461 11.2539 15.5291 11.0645 15.5291C10.8752 15.5291 10.6935 15.461 10.5596 15.3399C10.4257 15.2187 10.3505 15.0544 10.3505 14.883V12.9448H8.20822C8.01884 12.9448 7.83721 12.8767 7.70329 12.7556C7.56937 12.6344 7.49414 12.4701 7.49414 12.2987C7.49414 12.1274 7.56937 11.963 7.70329 11.8419C7.83721 11.7207 8.01884 11.6527 8.20822 11.6527H10.3505V9.71443C10.3505 9.54308 10.4257 9.37875 10.5596 9.25759C10.6935 9.13643 10.8752 9.06836 11.0645 9.06836Z" fill="white"/>
</g>
<defs>
<clipPath id="clip0_321_54">
<rect width="22.8506" height="20.6743" fill="white"/>
</clipPath>
</defs>
</svg>
