<svg width="31" height="31" viewBox="0 0 31 31" fill="none" xmlns="http://www.w3.org/2000/svg">
<path d="M4.84375 6.78125C4.58682 6.78125 4.34042 6.67919 4.15874 6.49751C3.97706 6.31583 3.875 6.06943 3.875 5.8125C3.875 5.55557 3.97706 5.30917 4.15874 5.12749C4.34042 4.94581 4.58682 4.84375 4.84375 4.84375H26.1562C26.4132 4.84375 26.6596 4.94581 26.8413 5.12749C27.0229 5.30917 27.125 5.55557 27.125 5.8125C27.125 6.06943 27.0229 6.31583 26.8413 6.49751C26.6596 6.67919 26.4132 6.78125 26.1562 6.78125H4.84375ZM8.71875 2.90625C8.46182 2.90625 8.21542 2.80419 8.03374 2.62251C7.85206 2.44083 7.75 2.19443 7.75 1.9375C7.75 1.68057 7.85206 1.43417 8.03374 1.25249C8.21542 1.07081 8.46182 0.96875 8.71875 0.96875H22.2812C22.5382 0.96875 22.7846 1.07081 22.9663 1.25249C23.1479 1.43417 23.25 1.68057 23.25 1.9375C23.25 2.19443 23.1479 2.44083 22.9663 2.62251C22.7846 2.80419 22.5382 2.90625 22.2812 2.90625H8.71875ZM0 25.1875C0 25.9583 0.306193 26.6975 0.851221 27.2425C1.39625 27.7876 2.13546 28.0938 2.90625 28.0938H28.0938C28.8645 28.0938 29.6038 27.7876 30.1488 27.2425C30.6938 26.6975 31 25.9583 31 25.1875V11.625C31 10.8542 30.6938 10.115 30.1488 9.56997C29.6038 9.02494 28.8645 8.71875 28.0938 8.71875H2.90625C2.13546 8.71875 1.39625 9.02494 0.851221 9.56997C0.306193 10.115 0 10.8542 0 11.625L0 25.1875ZM2.90625 26.1562C2.64932 26.1562 2.40292 26.0542 2.22124 25.8725C2.03956 25.6908 1.9375 25.4444 1.9375 25.1875V11.625C1.9375 11.3681 2.03956 11.1217 2.22124 10.94C2.40292 10.7583 2.64932 10.6562 2.90625 10.6562H28.0938C28.3507 10.6562 28.5971 10.7583 28.7788 10.94C28.9604 11.1217 29.0625 11.3681 29.0625 11.625V25.1875C29.0625 25.4444 28.9604 25.6908 28.7788 25.8725C28.5971 26.0542 28.3507 26.1562 28.0938 26.1562H2.90625Z" fill="white"/>
</svg>
