<svg width="31" height="31" viewBox="0 0 31 31" fill="none" xmlns="http://www.w3.org/2000/svg">
<path fill-rule="evenodd" clip-rule="evenodd" d="M9.6875 22.2812C9.6875 22.0243 9.78956 21.7779 9.97124 21.5962C10.1529 21.4146 10.3993 21.3125 10.6562 21.3125H28.0938C28.3507 21.3125 28.5971 21.4146 28.7788 21.5962C28.9604 21.7779 29.0625 22.0243 29.0625 22.2812C29.0625 22.5382 28.9604 22.7846 28.7788 22.9663C28.5971 23.1479 28.3507 23.25 28.0938 23.25H10.6562C10.3993 23.25 10.1529 23.1479 9.97124 22.9663C9.78956 22.7846 9.6875 22.5382 9.6875 22.2812ZM9.6875 14.5312C9.6875 14.2743 9.78956 14.0279 9.97124 13.8462C10.1529 13.6646 10.3993 13.5625 10.6562 13.5625H28.0938C28.3507 13.5625 28.5971 13.6646 28.7788 13.8462C28.9604 14.0279 29.0625 14.2743 29.0625 14.5312C29.0625 14.7882 28.9604 15.0346 28.7788 15.2163C28.5971 15.3979 28.3507 15.5 28.0938 15.5H10.6562C10.3993 15.5 10.1529 15.3979 9.97124 15.2163C9.78956 15.0346 9.6875 14.7882 9.6875 14.5312ZM9.6875 6.78125C9.6875 6.52432 9.78956 6.27792 9.97124 6.09624C10.1529 5.91456 10.3993 5.8125 10.6562 5.8125H28.0938C28.3507 5.8125 28.5971 5.91456 28.7788 6.09624C28.9604 6.27792 29.0625 6.52432 29.0625 6.78125C29.0625 7.03818 28.9604 7.28458 28.7788 7.46626C28.5971 7.64794 28.3507 7.75 28.0938 7.75H10.6562C10.3993 7.75 10.1529 7.64794 9.97124 7.46626C9.78956 7.28458 9.6875 7.03818 9.6875 6.78125Z" fill="white"/>
<path d="M4.3441 4.25098C4.37706 4.14415 4.44338 4.05068 4.53334 3.98429C4.6233 3.9179 4.73217 3.88208 4.84397 3.88208C4.95578 3.88208 5.06464 3.9179 5.1546 3.98429C5.24456 4.05068 5.31089 4.14415 5.34385 4.25098L5.65772 5.27786C5.72554 5.50067 5.92897 5.65373 6.1576 5.65373H7.22516C7.72697 5.65373 7.94204 6.29892 7.54291 6.60892L6.63616 7.31223C6.55112 7.37976 6.48829 7.47126 6.45582 7.57488C6.42335 7.67851 6.42273 7.7895 6.45404 7.89348L6.78922 8.99592C6.94035 9.49192 6.37654 9.89104 5.96966 9.57717L5.16172 8.94942C5.07049 8.87966 4.95883 8.84186 4.84397 8.84186C4.72912 8.84186 4.61746 8.87966 4.52622 8.94942L3.71829 9.57523C3.31141 9.89104 2.74954 9.49192 2.89872 8.99592L3.23391 7.89154C3.2648 7.78783 3.26396 7.67725 3.2315 7.57402C3.19905 7.47078 3.13646 7.37962 3.05179 7.31223L2.14504 6.60892C1.74591 6.29892 1.96097 5.65373 2.46279 5.65373H3.52841C3.64143 5.6537 3.75141 5.61706 3.84187 5.5493C3.93233 5.48154 3.99841 5.38631 4.03022 5.27786L4.3441 4.25098ZM4.3441 12.001C4.37706 11.8941 4.44338 11.8007 4.53334 11.7343C4.6233 11.6679 4.73217 11.6321 4.84397 11.6321C4.95578 11.6321 5.06464 11.6679 5.1546 11.7343C5.24456 11.8007 5.31089 11.8941 5.34385 12.001L5.65772 13.0279C5.72554 13.2507 5.92897 13.4037 6.1576 13.4037H7.22516C7.72697 13.4037 7.94204 14.0489 7.54291 14.3589L6.63616 15.0622C6.55112 15.1298 6.48829 15.2213 6.45582 15.3249C6.42335 15.4285 6.42273 15.5395 6.45404 15.6435L6.78922 16.7459C6.94035 17.24 6.37654 17.641 5.96966 17.3272L5.16172 16.6994C5.07049 16.6297 4.95883 16.5919 4.84397 16.5919C4.72912 16.5919 4.61746 16.6297 4.52622 16.6994L3.71829 17.3252C3.31141 17.641 2.74954 17.2419 2.89872 16.7459L3.23391 15.6415C3.2648 15.5378 3.26396 15.4273 3.2315 15.324C3.19905 15.2208 3.13646 15.1296 3.05179 15.0622L2.14504 14.3589C1.74591 14.0489 1.96097 13.4037 2.46279 13.4037H3.52841C3.64143 13.4037 3.75141 13.3671 3.84187 13.2993C3.93233 13.2315 3.99841 13.1363 4.03022 13.0279L4.3441 12.001ZM4.3441 19.751C4.37706 19.6441 4.44338 19.5507 4.53334 19.4843C4.6233 19.4179 4.73217 19.3821 4.84397 19.3821C4.95578 19.3821 5.06464 19.4179 5.1546 19.4843C5.24456 19.5507 5.31089 19.6441 5.34385 19.751L5.65772 20.7779C5.72554 21.0007 5.92897 21.1537 6.1576 21.1537H7.22516C7.72697 21.1537 7.94204 21.7989 7.54291 22.1089L6.63616 22.8122C6.55112 22.8798 6.48829 22.9713 6.45582 23.0749C6.42335 23.1785 6.42273 23.2895 6.45404 23.3935L6.78922 24.4959C6.94035 24.99 6.37654 25.391 5.96966 25.0772L5.16172 24.4494C5.07049 24.3797 4.95883 24.3419 4.84397 24.3419C4.72912 24.3419 4.61746 24.3797 4.52622 24.4494L3.71829 25.0752C3.31141 25.391 2.74954 24.9919 2.89872 24.4959L3.23391 23.3915C3.2648 23.2878 3.26396 23.1772 3.2315 23.074C3.19905 22.9708 3.13646 22.8796 3.05179 22.8122L2.14504 22.1089C1.74591 21.7989 1.96097 21.1537 2.46279 21.1537H3.52841C3.64143 21.1537 3.75141 21.1171 3.84187 21.0493C3.93233 20.9815 3.99841 20.8863 4.03022 20.7779L4.3441 19.751Z" fill="white"/>
</svg>
