<svg width="16" height="16" viewBox="0 0 16 16" fill="none" xmlns="http://www.w3.org/2000/svg">
<g clip-path="url(#clip0_310_913)">
<path d="M12.7026 0.145328C12.61 0.0518057 12.4843 -0.000732422 12.3533 -0.000732422C12.2223 -0.000732422 12.0966 0.0518057 12.004 0.145328L10.3765 1.78859L14.0396 5.48717L15.6671 3.84491C15.7131 3.79857 15.7496 3.74352 15.7745 3.68291C15.7994 3.6223 15.8123 3.55733 15.8123 3.49171C15.8123 3.42609 15.7994 3.36112 15.7745 3.30051C15.7496 3.2399 15.7131 3.18485 15.6671 3.13851L12.7026 0.145328ZM13.341 6.19256L9.67786 2.49398L3.2548 8.97922H3.45935C3.59039 8.97922 3.71606 9.03178 3.80872 9.12533C3.90138 9.21889 3.95343 9.34578 3.95343 9.47808V9.97695H4.44751C4.57855 9.97695 4.70422 10.0295 4.79688 10.1231C4.88954 10.2166 4.94159 10.3435 4.94159 10.4758V10.9747H5.43568C5.56671 10.9747 5.69239 11.0272 5.78504 11.1208C5.8777 11.2143 5.92976 11.3412 5.92976 11.4735V11.9724H6.42384C6.55488 11.9724 6.68055 12.025 6.77321 12.1185C6.86586 12.2121 6.91792 12.339 6.91792 12.4713V12.6778L13.341 6.19256ZM5.96138 13.6436C5.94059 13.5878 5.92987 13.5286 5.92976 13.469V12.9701H5.43568C5.30464 12.9701 5.17897 12.9176 5.08631 12.824C4.99365 12.7305 4.94159 12.6036 4.94159 12.4713V11.9724H4.44751C4.31648 11.9724 4.1908 11.9198 4.09815 11.8263C4.00549 11.7327 3.95343 11.6058 3.95343 11.4735V10.9747H3.45935C3.32831 10.9747 3.20264 10.9221 3.10998 10.8286C3.01733 10.735 2.96527 10.6081 2.96527 10.4758V9.97695H2.47119C2.41212 9.97683 2.35355 9.96601 2.29826 9.94502L2.12138 10.1226C2.07429 10.1705 2.03732 10.2275 2.01268 10.2902L0.0363588 15.2789C0.000418652 15.3695 -0.00837945 15.4689 0.0110552 15.5645C0.0304898 15.6602 0.0773025 15.748 0.14569 15.817C0.214077 15.8861 0.301031 15.9333 0.395773 15.953C0.490514 15.9726 0.588876 15.9637 0.678664 15.9274L5.61947 13.9319C5.68159 13.9071 5.73807 13.8697 5.78549 13.8222L5.96138 13.6436Z" fill="#CCCCCC"/>
</g>
<defs>
<clipPath id="clip0_310_913">
<rect width="15.8106" height="15.9637" fill="white"/>
</clipPath>
</defs>
</svg>
