<svg width="18" height="18" viewBox="0 0 18 18" fill="none" xmlns="http://www.w3.org/2000/svg">
<g clip-path="url(#clip0_264_473)">
<path d="M4.79022 11.6369C3.70088 10.1504 3.21298 8.30742 3.42412 6.47666C3.63527 4.6459 4.52988 2.96237 5.92898 1.76289C7.32809 0.563405 9.1285 -0.0635771 10.97 0.00738022C12.8116 0.0783375 14.5584 0.842001 15.861 2.14559C17.1637 3.44918 17.9261 5.19655 17.9957 7.03813C18.0654 8.87971 17.4371 10.6797 16.2366 12.0779C15.0361 13.4762 13.352 14.3696 11.5211 14.5794C9.69016 14.7892 7.84754 14.3 6.36184 13.2096H6.36297C6.32997 13.2546 6.29322 13.2977 6.25272 13.339L1.92147 17.6702C1.71052 17.8813 1.42436 18 1.12593 18.0001C0.827497 18.0002 0.54125 17.8818 0.330154 17.6708C0.119059 17.4599 0.000406265 17.1737 0.000301361 16.8753C0.00019455 16.5768 0.118647 16.2906 0.329592 16.0795L4.66084 11.7482C4.70104 11.7075 4.74429 11.671 4.79022 11.6369ZM4.49997 7.31237C4.49997 8.12492 4.66001 8.92952 4.97096 9.68022C5.28191 10.4309 5.73768 11.113 6.31224 11.6876C6.88681 12.2622 7.56891 12.7179 8.31961 13.0289C9.07032 13.3398 9.87491 13.4999 10.6875 13.4999C11.5 13.4999 12.3046 13.3398 13.0553 13.0289C13.806 12.7179 14.4881 12.2622 15.0627 11.6876C15.6373 11.113 16.093 10.4309 16.404 9.68022C16.7149 8.92952 16.875 8.12492 16.875 7.31237C16.875 5.67134 16.2231 4.09753 15.0627 2.93715C13.9023 1.77676 12.3285 1.12487 10.6875 1.12487C9.04644 1.12487 7.47262 1.77676 6.31224 2.93715C5.15186 4.09753 4.49997 5.67134 4.49997 7.31237Z" fill="white"/>
</g>
<defs>
<clipPath id="clip0_264_473">
<rect width="18" height="18" fill="white" transform="matrix(-1 0 0 1 18 0)"/>
</clipPath>
</defs>
</svg>
